<svg width="36" height="35" viewBox="0 0 36 35" fill="none" xmlns="http://www.w3.org/2000/svg">
<path d="M19.523 28.6615C19.5571 25.1737 18.6729 22.3373 17.5481 22.3263C16.4232 22.3154 15.4837 25.1339 15.4496 28.6217C15.4155 32.1096 16.2998 34.946 17.4246 34.9569C18.5494 34.9679 19.489 32.1494 19.523 28.6615Z" fill="white"/>
<path d="M12.9993 27.8694C14.9138 24.9537 15.7035 22.0896 14.7633 21.4721C13.8229 20.8547 11.5087 22.7178 9.59418 25.6335C7.67968 28.5491 6.88996 31.4132 7.83023 32.0307C8.77058 32.6481 11.0848 30.785 12.9993 27.8694Z" fill="white"/>
<path d="M7.93178 23.6862C11.1188 22.2686 13.3317 20.2862 12.8745 19.2584C12.4173 18.2306 9.46318 18.5466 6.27619 19.9642C3.08924 21.3818 0.876321 23.3642 1.3335 24.392C1.79067 25.4198 4.74482 25.1038 7.93178 23.6862Z" fill="white"/>
<path d="M12.4919 16.3761C12.6631 15.2643 10.0071 13.9329 6.5598 13.4022C3.11235 12.8716 0.178947 13.3428 0.00782654 14.4546C-0.163303 15.5664 2.49266 16.8978 5.94008 17.4284C9.38744 17.9591 12.3209 17.4879 12.4919 16.3761Z" fill="white"/>
<path d="M13.7297 13.7275C14.4746 12.8847 12.9598 10.3289 10.3462 8.01902C7.73272 5.70916 5.01011 4.51995 4.26518 5.36283C3.52024 6.20573 5.03507 8.7615 7.64867 11.0714C10.2622 13.3813 12.9848 14.5704 13.7297 13.7275Z" fill="white"/>
<path d="M16.1947 12.1796C17.2771 11.8733 17.3846 8.9043 16.4349 5.54805C15.4852 2.19182 13.8378 -0.280643 12.7554 0.0256473C11.673 0.331927 11.5655 3.30098 12.5152 6.65724C13.4649 10.0134 15.1123 12.4859 16.1947 12.1796Z" fill="white"/>
<path d="M22.888 6.76167C23.9037 3.42482 23.8548 0.454222 22.7786 0.126652C21.7025 -0.200918 20.0067 2.23857 18.9909 5.57542C17.9753 8.91221 18.0242 11.8828 19.1004 12.2104C20.1765 12.538 21.8723 10.0985 22.888 6.76167Z" fill="white"/>
<path d="M27.6708 11.2704C30.329 9.01212 31.8936 6.48641 31.1652 5.62915C30.4369 4.77187 27.6915 5.90767 25.0333 8.16592C22.3751 10.4243 20.8106 12.95 21.5389 13.8072C22.2672 14.6645 25.0126 13.5288 27.6708 11.2704Z" fill="white"/>
<path d="M29.2521 17.6509C32.7093 17.1884 35.391 15.9096 35.2418 14.7946C35.0927 13.6797 32.1691 13.1508 28.7119 13.6133C25.2547 14.0758 22.573 15.3546 22.7222 16.4696C22.8713 17.5845 25.7948 18.1135 29.2521 17.6509Z" fill="white"/>
<path d="M33.712 24.7107C34.1894 23.6921 32.016 21.6665 28.8576 20.1863C25.6992 18.7061 22.7519 18.332 22.2745 19.3505C21.7972 20.3692 23.9705 22.3948 27.129 23.875C30.2873 25.3551 33.2346 25.7293 33.712 24.7107Z" fill="white"/>
<path d="M27.0684 32.2262C28.0206 31.6275 27.2875 28.7483 25.4309 25.7955C23.5743 22.8427 21.2972 20.9344 20.3449 21.5331C19.3927 22.1318 20.1258 25.011 21.9824 27.9638C23.839 30.9167 26.1161 32.825 27.0684 32.2262Z" fill="white"/>
</svg>
